<?xml version="1.0" encoding="utf-8"?>
<!-- Generator: Adobe Illustrator 23.0.0, SVG Export Plug-In . SVG Version: 6.00 Build 0)  -->
<svg version="1.1" id="图层_1" xmlns="http://www.w3.org/2000/svg" xmlns:xlink="http://www.w3.org/1999/xlink" x="0px" y="0px"
	 viewBox="0 0 161.5 161.5" style="enable-background:new 0 0 161.5 161.5;" xml:space="preserve">
<style type="text/css">
	.st0{fill:#C23531;}
</style>
<title>未标题-1</title>
<path class="st0" d="M61,148c-1.8,0.5-3.2-2.6-2.3-5.1l14.9-38.6l10-4c3.2-1.3,10.5-5.8,18.6-11.1c1.2-0.8,2.2,1.6,1.3,3l-6.3,9.2
	c1.8-0.1,3.5,1.5,4.2,4.1c1,3.4,0,7.4-2.3,8.9l0,0l-16.8,11.2c-4.2,8.2-9,17.3-11.4,19.1c-1,0.8-2.2,1.4-3.4,1.7L61,148z
	 M28.6,106.1c-1.9,4.4,0.7,10.5,5.1,7.8l48.7-19.8c7.6-3.1,41.7-26.6,48.7-32c2.9-1.8,17.9-13.4,15.6-20.5
	c-1.8-5.4-6.7-4.7-12.6-5.4c-4.6-0.6-9.3-2.5-12.6-1.1c-8.9,3.7-17.4,8.2-25.3,13.6l-20.2-9.3l2.3-1.5c2.7-1.8,4-6.5,2.8-10.7
	s-4.3-6.1-7-4.3l0,0l-12.9,8.4L34.8,14.3c-2.3-1.5-4.6-1.7-6.9-0.4l-8.7,4.8c-0.8,0.4-1.2,1.7-1,2.8c0.1,0.4,0.3,0.8,0.6,1.2
	l46.9,49.1c-6.2,5.3-12.4,10.8-18.5,16.4l-26-8.9c-2-0.7-4.1-0.5-5.9,0.5L13,81c-0.8,0.4-1.2,1.7-0.9,2.9c0.1,0.4,0.2,0.8,0.5,1.1
	L28.6,106.1z"/>
</svg>
