<?xml version="1.0" encoding="utf-8"?>
<!-- Generator: Adobe Illustrator 23.0.0, SVG Export Plug-In . SVG Version: 6.00 Build 0)  -->
<svg version="1.1" id="图层_1" xmlns="http://www.w3.org/2000/svg" xmlns:xlink="http://www.w3.org/1999/xlink" x="0px" y="0px"
	 viewBox="0 0 200 200" style="enable-background:new 0 0 200 200;" xml:space="preserve">
<style type="text/css">
	.st0{fill:#C23531;}
</style>
<path class="st0" d="M176,153.7c-0.1,0.8-0.4,1.5-1.1,2l-27,15.3c-0.6,0.3-1,0-0.9-0.8l1.2-24.8c0.1-0.8,0.4-1.5,1.1-2l27-15.3
	c0.6-0.3,1,0,0.9,0.8L176,153.7z M142,136.6c-0.3,0.4-0.8,0.5-1.3,0.5s-1-0.2-1.3-0.5l-33.8-18.4c-0.7-0.7-0.7-1.9,0-2.6l33.8-18.4
	c0.3-0.4,0.8-0.5,1.3-0.5s1,0.2,1.3,0.5l33.7,18.4c0.7,0.7,0.7,1.9,0,2.6L142,136.6L142,136.6z M182.7,108l-38.4-20.3
	c-2.3-1.2-5-1.2-7.3,0L101.4,108c-1.6,1.5-2.2,3.8-1.4,5.9v40.4c-0.8,2.1-0.3,4.4,1.3,5.9l36.6,20.3c2,1.2,4.4,1.2,6.4,0l38.7-20.4
	c2.4-1.1,4.1-3.3,4.5-5.9v-40.4C187,111.3,185.2,109.1,182.7,108z M93.6,153.7c-0.1,0.8-0.4,1.5-1.1,2l-27,15.3
	c-0.6,0.3-1,0-0.9-0.8l1.2-24.8c0.1-0.8,0.4-1.5,1.1-2l27-15.3c0.6-0.3,1,0,0.9,0.8L93.6,153.7z M59.5,136.6
	c-0.3,0.4-0.8,0.5-1.3,0.5s-1-0.2-1.3-0.5l-33.8-18.4c-0.7-0.7-0.7-1.9,0-2.6l33.8-18.4c0.3-0.4,0.8-0.5,1.3-0.5s1,0.2,1.3,0.5
	l33.7,18.4c0.7,0.7,0.7,1.9,0,2.6L59.5,136.6L59.5,136.6z M97.7,108L60.7,87.7c-2.1-1.2-4.6-1.2-6.7,0L16.2,108
	c-2.2,1.2-3.6,3.4-3.7,5.9v40.4c0.1,2.5,1.6,4.8,3.8,5.9l37.9,20.4c2.2,1.2,4.8,1.2,7.1,0l36.5-20.4c1.9-1.3,2.8-3.7,2.3-5.9v-40.4
	C100.5,111.7,99.6,109.4,97.7,108z M134.6,85.4c-0.1,0.8-0.4,1.5-1.1,2l-27,15.3c-0.6,0.3-1,0-0.9-0.8l1.2-24.8
	c0.1-0.8,0.4-1.5,1.1-2L135,59.8c0.6-0.3,1,0,0.9,0.8L134.6,85.4z M100.6,68.3c-0.3,0.4-0.8,0.5-1.3,0.5s-1-0.2-1.3-0.5L64.2,49.9
	c-0.7-0.7-0.7-1.9,0-2.6L98,28.8c0.3-0.4,0.8-0.5,1.3-0.5s1,0.2,1.3,0.5l33.7,18.4c0.7,0.7,0.7,1.9,0,2.6
	C134.3,49.9,100.6,68.3,100.6,68.3z M140.1,39.7l-37.8-20.4c-2.2-1.2-4.8-1.2-7,0L58.7,39.7c-1.9,1.3-2.9,3.6-2.4,5.9v40.4
	c-0.4,2.3,0.5,4.6,2.5,5.9l37.1,20.3c2.1,1.2,4.6,1.2,6.7,0L140.3,92c2.1-1.2,3.5-3.5,3.4-5.9V45.6
	C143.7,43.2,142.3,40.9,140.1,39.7z"/>
</svg>
