<?xml version="1.0" standalone="no"?><!DOCTYPE svg PUBLIC "-//W3C//DTD SVG 1.1//EN" "http://www.w3.org/Graphics/SVG/1.1/DTD/svg11.dtd"><svg t="1611033800940" class="icon" viewBox="0 0 1024 1024" version="1.1" xmlns="http://www.w3.org/2000/svg" p-id="3497" xmlns:xlink="http://www.w3.org/1999/xlink" width="200" height="200"><defs><style type="text/css"></style></defs><path d="M901.2 786.8c-0.3 4-2.3 7.7-5.6 10l-138.3 78.4c-2.9 1.6-5 0-4.8-4.2l6.3-126.9c0.3-4 2.3-7.7 5.6-10l138.3-78.4c2.9-1.6 5 0 4.8 4.2l-6.3 126.9z m-174.4-87.6c-1.7 1.8-4.1 2.8-6.6 2.8s-4.9-1-6.6-2.8l-173.1-94.4c-3.6-3.8-3.6-9.7 0-13.4L713.6 497c1.7-1.8 4.1-2.8 6.6-2.8s4.9 1 6.6 2.8l172.5 94.4c3.6 3.8 3.6 9.7 0 13.4l-172.5 94.4zM935.4 553L738.9 448.9c-11.7-6-25.6-6-37.3 0L519.4 553c-8.4 7.7-11.3 19.6-7.3 30.3v206.9c-4.2 10.5-1.6 22.4 6.5 30.3L706 924.6c10.1 6 22.7 6 32.8 0l198.1-104.2c12.4-5.5 21.2-16.9 23.2-30.3V583.3c-2.7-13.5-12-24.8-24.7-30.3zM479.1 786.9c-0.3 4-2.3 7.7-5.6 10l-138.2 78.4c-2.9 1.6-5 0-4.8-4.2l6.3-126.9c0.3-4 2.3-7.7 5.6-10l138.3-78.4c2.9-1.6 5 0 4.8 4.2l-6.4 126.9z m-174.6-87.7c-1.7 1.8-4.1 2.8-6.6 2.8s-4.9-1-6.6-2.8l-173.1-94.4c-3.6-3.8-3.6-9.7 0-13.4L291.3 497c1.7-1.8 4.1-2.8 6.6-2.8s4.9 1 6.6 2.8L477 591.4c3.6 3.8 3.6 9.7 0 13.4l-172.5 94.4zM500.3 553L310.6 448.9c-10.6-6-23.5-6-34.1 0L82.7 553c-11.4 5.9-18.6 17.5-18.7 30.3v206.9c0.5 12.9 8 24.4 19.6 30.3l194 104.2c11.3 6 24.8 6 36.1 0l186.7-104.2c9.6-6.9 14.2-18.8 11.8-30.3V583.3c2.4-11.5-2.2-23.4-11.9-30.3z m189-115.8c-0.3 4-2.3 7.7-5.6 10l-138.1 78.5c-2.9 1.6-5 0-4.8-4.2l6.2-126.9c0.3-4 2.3-7.7 5.6-10l138.5-78.4c2.9-1.6 5 0 4.8 4.2l-6.6 126.8z m-174.4-87.6c-1.7 1.8-4.1 2.8-6.6 2.8s-4.9-1-6.6-2.8l-173.1-94.3c-3.6-3.8-3.6-9.7 0-13.4l173.1-94.4c1.7-1.8 4.1-2.8 6.6-2.8s4.9 1 6.6 2.8l172.6 94.4c3.6 3.8 3.6 9.7 0 13.4l-172.6 94.3z m202.6-146.1L524.1 99.3c-11.2-6-24.6-6-35.8 0L300.7 203.5c-9.8 6.8-14.6 18.6-12.4 30.3v206.9c-2.2 11.7 2.8 23.6 12.7 30.3l190.2 104c10.7 6 23.7 6 34.4 0l192.7-104.2c11-6.1 17.8-17.7 17.6-30.3V233.7c-0.2-12.6-7.2-24.2-18.4-30.2z" p-id="3498" fill="#d81e06"></path></svg>