<?xml version="1.0" standalone="no"?><!DOCTYPE svg PUBLIC "-//W3C//DTD SVG 1.1//EN" "http://www.w3.org/Graphics/SVG/1.1/DTD/svg11.dtd"><svg t="1610506442031" class="icon" viewBox="0 0 1024 1024" version="1.1" xmlns="http://www.w3.org/2000/svg" p-id="3778" xmlns:xlink="http://www.w3.org/1999/xlink" width="200" height="200"><defs><style type="text/css"></style></defs><path d="M886.2 511.6h-49.7c-85.4-53.4-170.7-106.7-256.1-160.1 0.7-0.7 1.4-1.1 2.1-1.8 58.7-58.7 26.2-147.8-42.5-172.4v-22.5h136.4c40.5 0 40.6-62.9 0-62.9H340.7c-40.5 0-40.6 62.9 0 62.9h136.4v47.6c0 13.3 7 21.7 16.1 26.3 1.2 0.8 2.4 1.5 3.8 2.2h0.1c3.4 1.5 7.1 2.7 11.5 3 35.6 1.9 56.3 44.3 29.5 71.2-5.2 5.2-11.1 8.2-17.1 10-8.1 2.5-16.3 2.3-24-0.3-15.9-5.3-29-19.9-30.1-39.2-2.2-40.3-65.1-40.6-62.9 0 1.6 30.3 15.2 56.1 34.8 74.5-86 53.8-172 107.5-258.1 161.3H131c-23.1 0-42 18.9-42 42v335.7c0 23.1 18.9 42 42 42h755.3c23.1 0 42-18.9 42-42V553.6c-0.2-23.1-19.1-42-42.1-42z m-626 314.7c0 40.6-62.9 40.5-62.9 0V616.5c0-40.6 62.9-40.5 62.9 0v209.8z m139.9 0c0 40.6-62.9 40.5-62.9 0V616.5c0-40.6 62.9-40.5 62.9 0v209.8z m139.9 0c0 40.6-62.9 40.5-62.9 0V616.5c0-40.6 62.9-40.5 62.9 0v209.8z m139.8 0c0 40.6-62.9 40.5-62.9 0V616.5c0-40.6 62.9-40.5 62.9 0v209.8zM299.3 511.6C369 468 438.8 424.4 508.5 380.8 578.2 424.4 648 468 717.7 511.6H299.3z m520.4 314.7c0 40.6-62.9 40.5-62.9 0V616.5c0-40.6 62.9-40.5 62.9 0v209.8z" p-id="3779" fill="#C23531"></path></svg>