<?xml version="1.0" encoding="utf-8"?>
<!-- Generator: Adobe Illustrator 23.0.0, SVG Export Plug-In . SVG Version: 6.00 Build 0)  -->
<svg version="1.1" id="图层_1" xmlns="http://www.w3.org/2000/svg" xmlns:xlink="http://www.w3.org/1999/xlink" x="0px" y="0px"
	 viewBox="0 0 200 200" style="enable-background:new 0 0 200 200;" xml:space="preserve">
<style type="text/css">
	.st0{fill:#C23531;}
</style>
<path class="st0" d="M30.4,183.5c-8.3,0-15-6.6-15.1-14.9V27.9C15.4,19.6,22.1,13,30.4,13H135c8.3,0,15,6.6,15.1,14.9v26.5
	c-0.1,3.4-3,6.1-6.4,6c-3.3-0.1-5.9-2.7-6-6V27.9c0-1.5-1.2-2.6-2.7-2.6H30.4c-1.5,0-2.7,1.2-2.7,2.6v140.6c0,1.5,1.2,2.6,2.7,2.6
	h51.3c1.6,0,3.2,0.7,4.3,1.9c1.1,1.2,1.7,2.7,1.7,4.3c-0.1,3.3-2.8,5.9-6.1,6L30.4,183.5z"/>
<path class="st0" d="M45.2,52.6c-3,0-5.5-2.5-5.5-5.5s2.5-5.5,5.5-5.5h61.6c3,0,5.5,2.5,5.5,5.5s-2.5,5.5-5.5,5.5H45.2z M45.2,80.8
	c-3,0-5.5-2.5-5.5-5.5s2.5-5.5,5.5-5.5h40c3,0,5.5,2.5,5.5,5.5s-2.5,5.5-5.5,5.5H45.2z M45.2,109.1c-3,0-5.4-2.5-5.4-5.5v-0.1
	c0-3,2.4-5.5,5.4-5.6h26c3,0,5.4,2.5,5.4,5.5v0.1c0,3-2.4,5.5-5.4,5.6H45.2z M141.8,121.7c-14.2,0.3-26-11.1-26.2-25.3
	c-0.3-14.2,11.1-26,25.3-26.2c14.2-0.3,26,11.1,26.2,25.3c0,0.2,0,0.3,0,0.5C167.2,110,155.9,121.5,141.8,121.7z M141.8,81.3
	c-8.1-0.1-14.8,6.3-14.9,14.4s6.3,14.8,14.4,14.9s14.8-6.3,14.9-14.4c0-0.1,0-0.2,0-0.3C156.2,88,149.8,81.4,141.8,81.3z M179.3,187
	h-75c-3,0-5.4-2.5-5.4-5.5l0,0v-26.8c0-3,2.4-5.5,5.4-5.5l0,0h75c3,0,5.4,2.5,5.4,5.5l0,0v26.8c0.1,3-2.2,5.4-5.2,5.5
	C179.4,187,179.4,187,179.3,187L179.3,187z M109.7,176h64.2v-15.8h-64.2V176z"/>
<path class="st0" d="M114.7,160.5c-2.3,0-4.3-1.5-5-3.7c-0.8-2.7,0.7-5.6,3.4-6.5c18.9-5.9,14.9-31.6,14.6-32.7
	c-0.4-2.8,1.6-5.5,4.5-5.8c2.7-0.4,5.2,1.4,5.8,4.1c2.1,12.3,0.2,37.5-21.8,44.3C115.6,160.4,115.2,160.5,114.7,160.5z M168.6,160.5
	c-0.5,0-1.1-0.1-1.6-0.2c-22.1-6.8-23.9-32-21.8-44.3c0.6-2.8,3.3-4.6,6.1-4.1c2.7,0.5,4.5,3.1,4.1,5.8c-0.1,1.1-4.1,26.8,14.6,32.7
	c2.7,0.9,4.2,3.7,3.4,6.5C172.8,159,170.9,160.5,168.6,160.5L168.6,160.5z"/>
<path class="st0" d="M45.3,52.6c-3,0-5.5-2.5-5.5-5.5s2.5-5.5,5.5-5.5H108c3,0,5.5,2.5,5.5,5.5s-2.5,5.5-5.5,5.5H45.3z M45.3,80.8
	c-3,0-5.5-2.5-5.5-5.5s2.5-5.5,5.5-5.5h40.8c3,0,5.5,2.5,5.5,5.5s-2.5,5.5-5.5,5.5l0,0H45.3z M45.3,109.1c-3,0-5.5-2.5-5.5-5.5v-0.1
	c0-3,2.4-5.5,5.5-5.6h26.5c3,0,5.5,2.5,5.5,5.5v0.1c0,3.1-2.4,5.6-5.5,5.6H45.3z"/>
</svg>
