<?xml version="1.0" encoding="utf-8"?>
<!-- Generator: Adobe Illustrator 23.0.0, SVG Export Plug-In . SVG Version: 6.00 Build 0)  -->
<svg version="1.1" id="图层_1" xmlns="http://www.w3.org/2000/svg" xmlns:xlink="http://www.w3.org/1999/xlink" x="0px" y="0px"
	 viewBox="0 0 200 200" style="enable-background:new 0 0 200 200;" xml:space="preserve">
<style type="text/css">
	.st0{fill:#C23531;}
</style>
<path class="st0" d="M158.3,181.3H41.7c-5.4,0-10.8-2.5-14.2-6.7c-3.8-4.2-5-9.6-4.2-15l12.9-83.3c1.2-9.2,8.8-15.8,18.3-15.8h91.3
	c9.2,0,17.1,6.7,18.3,15.8l12.9,83.3c0.8,5.4-0.8,10.8-4.2,15C169.2,178.8,163.8,181.3,158.3,181.3L158.3,181.3z M54.6,73
	c-2.9,0-5.8,2.1-6.3,5.4l-12.9,83.3c-0.4,1.7,0.4,3.8,1.3,5c1.3,1.3,3.3,2.1,5,2.1h116.7c1.7,0,3.3-0.8,4.6-2.1
	c1.3-1.3,1.7-3.3,1.3-5l-12.9-83.3c-0.4-2.9-2.9-5.4-6.3-5.4C145,73,54.6,73,54.6,73z"/>
<path class="st0" d="M140.4,70.5l-12.1-2.9c0.4-2.1,0.8-4.6,0.8-6.7c0-16.3-12.9-29.2-29.2-29.2S70.8,44.7,70.8,60.9
	c0,2.5,0.4,4.6,0.8,6.7l-12.1,2.9c-0.8-3.3-1.2-6.7-1.2-10c0-22.9,18.8-41.7,41.7-41.7s41.7,18.8,41.7,41.7
	C141.7,63.8,141.3,67.2,140.4,70.5z M125,118.8H91.7v2.5c0,3.8,0.8,6.7,2.9,8.3c2.1,2.1,4.2,2.9,7.1,2.9c5,0,8.3-2.9,9.2-8.3
	l13.8,0.8c-3.8,12.1-11.7,17.9-23.8,17.9c-5,0-9.6-0.8-13.3-2.9c-3.8-2.1-6.7-5-9.2-9.2s-3.3-8.8-3.3-14.2c0-8.3,2.5-15,7.1-20
	s10.8-7.5,18.3-7.5c6.7,0,12.5,2.5,17.1,7.1C122.5,100.9,125,108.4,125,118.8L125,118.8z M91.3,110.1h18.3
	c-0.4-7.1-3.3-10.8-8.7-10.8C95.4,99.3,92.1,103,91.3,110.1z"/>
</svg>
