<?xml version="1.0" standalone="no"?><!DOCTYPE svg PUBLIC "-//W3C//DTD SVG 1.1//EN" "http://www.w3.org/Graphics/SVG/1.1/DTD/svg11.dtd"><svg t="1611034312530" class="icon" viewBox="0 0 1024 1024" version="1.1" xmlns="http://www.w3.org/2000/svg" p-id="23746" xmlns:xlink="http://www.w3.org/1999/xlink" width="200" height="200"><defs><style type="text/css"></style></defs><path d="M984.429714 332.8L910.994286 245.321143a13.385143 13.385143 0 0 0-10.422857-4.754286h-85.686858a21.028571 21.028571 0 0 0-5.193142-3.803428L311.588571 37.558857a14.153143 14.153143 0 0 0-13.714285 1.901714l-228.205715 176.859429h-19.382857A13.750857 13.750857 0 0 0 36.571429 230.107429v135.972571c0 7.606857 6.144 13.787429 13.714285 13.787429h144.896a13.750857 13.750857 0 0 0 13.714286-13.787429v-10.459429h78.628571v592.822858H135.972571a18.212571 18.212571 0 0 0-18.468571 18.541714v1.901714c0 10.459429 8.045714 18.541714 18.468571 18.541714H833.828571a18.212571 18.212571 0 0 0 18.468572-18.541714v-1.901714a18.212571 18.212571 0 0 0-18.468572-18.541714H445.622857V355.620571h276.041143l30.756571 168.777143h-10.861714a11.629714 11.629714 0 0 0-8.996571 4.242286c-2.377143 2.852571-2.852571 6.217143-2.377143 9.984l19.382857 82.724571a11.702857 11.702857 0 0 0 11.373714 9.033143h14.701715v70.838857h28.379428c9.947429 1.901714 18.944 6.656 26.075429 14.262858 9.435429 9.508571 14.189714 22.345143 13.714285 36.132571a49.737143 49.737143 0 0 1-46.884571 47.067429 48.347429 48.347429 0 0 1-35.986286-13.787429 50.102857 50.102857 0 0 1-15.140571-35.657143 13.750857 13.750857 0 0 0-13.714286-13.787428 13.750857 13.750857 0 0 0-13.750857 13.787428c0 20.918857 8.521143 40.886857 23.698286 55.625143 14.189714 13.787429 33.133714 21.394286 53.028571 21.394286h2.816c39.789714-1.426286 71.972571-34.230857 73.874286-74.166857a76.361143 76.361143 0 0 0-21.321143-56.576 73.069714 73.069714 0 0 0-35.986286-20.918858v-44.690285h19.419429a11.264 11.264 0 0 0 11.337143-9.508572l14.701714-82.724571a13.714286 13.714286 0 0 0-2.377143-9.508572 10.971429 10.971429 0 0 0-8.996571-4.242285h-6.582857l26.477714-168.777143h105.106286a14.811429 14.811429 0 0 0 12.8-8.082286 14.336 14.336 0 0 0-1.901715-14.262857z m-160.512 274.285714h-53.979428l-13.714286-59.428571h78.116571l-10.422857 59.428571zM445.147429 240.566857a14.262857 14.262857 0 0 0-1.865143-3.803428L332.434286 76.068571l411.428571 164.498286h-298.752z m-249.965715-24.246857H115.163429l172.8-133.595429v157.842286H208.896v-10.459428a13.750857 13.750857 0 0 0-13.714286-13.787429z" fill="#d81e06" p-id="23747"></path></svg>