<?xml version="1.0" encoding="utf-8"?>
<!-- Generator: Adobe Illustrator 23.0.0, SVG Export Plug-In . SVG Version: 6.00 Build 0)  -->
<svg version="1.1" id="图层_1" xmlns="http://www.w3.org/2000/svg" xmlns:xlink="http://www.w3.org/1999/xlink" x="0px" y="0px"
	 viewBox="0 0 200 200" style="enable-background:new 0 0 200 200;" xml:space="preserve">
<style type="text/css">
	.st0{fill:#C23531;}
</style>
<path class="st0" d="M192.3,65l-14.3-17.1c-0.5-0.6-1.3-0.9-2-0.9h-16.7c-0.3-0.3-0.6-0.5-1-0.7L60.9,7.3C60,7,58.9,7.1,58.2,7.7
	L13.6,42.3H9.8c-1.5,0-2.7,1.2-2.7,2.7c0,0,0,0,0,0v26.6c0,1.5,1.2,2.7,2.7,2.7h28.3c1.5,0,2.7-1.2,2.7-2.7c0,0,0,0,0,0v-2h15.4
	v115.8H26.6c-2,0-3.6,1.5-3.6,3.5c0,0,0,0.1,0,0.1v0.4c0,2,1.6,3.6,3.6,3.6h136.3c2,0,3.6-1.5,3.6-3.5c0,0,0-0.1,0-0.1v-0.4
	c0-2-1.5-3.6-3.5-3.6c0,0-0.1,0-0.1,0H87V69.5h53.9l6,33h-2.1c-0.7,0-1.3,0.3-1.8,0.8c-0.5,0.6-0.6,1.2-0.5,2l3.8,16.2
	c0.2,1,1.2,1.8,2.2,1.8h2.9V137h5.5c1.9,0.4,3.7,1.3,5.1,2.8c1.8,1.9,2.8,4.4,2.7,7.1c-0.3,5-4.2,8.9-9.2,9.2
	c-2.6,0.1-5.2-0.9-7-2.7c-1.9-1.8-2.9-4.3-3-7c0-1.5-1.2-2.7-2.7-2.7c0,0,0,0,0,0c-1.5,0-2.7,1.2-2.7,2.7c0,0,0,0,0,0
	c0,4.1,1.7,8,4.6,10.9c2.8,2.7,6.5,4.2,10.4,4.2h0.6c7.8-0.3,14.1-6.7,14.4-14.5c0.2-4.1-1.3-8.1-4.2-11c-1.9-2-4.3-3.4-7-4.1V123
	h3.8c1.1,0,2-0.8,2.2-1.9L168,105c0.1-0.7-0.1-1.3-0.5-1.9c-0.4-0.5-1.1-0.8-1.8-0.8h-1.3l5.2-33h20.5c1.1,0,2-0.6,2.5-1.6
	C193,66.9,192.9,65.8,192.3,65L192.3,65z M160.9,118.6h-10.5l-2.7-11.6H163L160.9,118.6z M86.9,47c-0.1-0.3-0.2-0.5-0.4-0.7
	L64.9,14.9L145.3,47H86.9L86.9,47z M38.1,42.3H22.5l33.8-26.1V47H40.8v-2C40.8,43.5,39.6,42.3,38.1,42.3
	C38.1,42.3,38.1,42.3,38.1,42.3z"/>
</svg>
