<?xml version="1.0" encoding="utf-8"?>
<!-- Generator: Adobe Illustrator 23.0.0, SVG Export Plug-In . SVG Version: 6.00 Build 0)  -->
<svg version="1.1" id="图层_1" xmlns="http://www.w3.org/2000/svg" xmlns:xlink="http://www.w3.org/1999/xlink" x="0px" y="0px"
	 viewBox="0 0 216.6 200" style="enable-background:new 0 0 216.6 200;" xml:space="preserve">
<style type="text/css">
	.st0{fill:#C23531;}
</style>
<path class="st0" d="M197,119.1h-42.8l15.8,15.4c-0.1,0.1-0.3,0.3-0.4,0.4c-12.7,16.5-31.6,27.5-52.5,30.5V99.7h16.3
	c5.5,0,10-4.4,10-9.8v-2.4c0-5.4-4.5-9.8-10-9.8h-16.3V56.5c9.9-5.3,13.6-17.4,8.1-27.1c-5.4-9.7-17.9-13.2-27.8-7.9
	s-13.6,17.4-8.1,27.1c1.8,3.3,4.6,6,7.9,7.8v21.3H77.6c-5.5,0-10,4.4-10,9.8l0,0v2.4c0,5.4,4.5,9.8,10,9.8c0,0,0,0,0,0h19.6V166
	c-21.8-1.9-41.9-12.5-55.6-29.1l18.2-17.8H17v41.7l13.9-13.6c34,39.8,94.7,45.2,135.5,12c5.3-4.3,10-9.1,14.3-14.4l16.3,15.9V119.1z
	 M107.2,25.5c7.6,0,13.8,6,13.8,13.5s-6.2,13.5-13.8,13.5c-7.6,0-13.8-6-13.8-13.5C93.4,31.6,99.6,25.6,107.2,25.5z"/>
</svg>
