<?xml version="1.0" standalone="no"?><!DOCTYPE svg PUBLIC "-//W3C//DTD SVG 1.1//EN" "http://www.w3.org/Graphics/SVG/1.1/DTD/svg11.dtd"><svg t="1607261282771" class="icon" viewBox="0 0 1024 1024" version="1.1" xmlns="http://www.w3.org/2000/svg" p-id="1012" xmlns:xlink="http://www.w3.org/1999/xlink" width="200" height="200"><defs><style type="text/css"></style></defs><path d="M855.3984 533.8112H532.48c-23.1424 0-41.9328-18.7904-41.9328-41.9328V168.96c0-24.832-21.504-44.4928-46.1312-41.728-207.4112 23.296-367.9232 201.6768-362.9056 416.4608 5.12 217.0368 182.1184 394.0864 399.1552 399.1552 214.784 5.0688 393.1648-155.4432 416.4608-362.9056 2.7648-24.6272-16.896-46.1312-41.728-46.1312z" fill="#CCDAFF" p-id="1013"></path><path d="M943.6672 441.344c-21.248-189.0816-171.3152-339.2-360.3968-360.3968-24.6784-2.7648-46.1824 16.896-46.1824 41.728v322.9184c0 23.1424 18.7904 41.9328 41.9328 41.9328h322.9184c24.832-0.0512 44.4928-21.504 41.728-46.1824z" fill="#7A7AF9" p-id="1014"></path></svg>